<mxfile host="app.diagrams.net" modified="2023-05-30T20:27:53.318Z" agent="Mozilla/5.0 (Windows NT 10.0; Win64; x64) AppleWebKit/537.36 (KHTML, like Gecko) Chrome/113.0.0.0 Safari/537.36" etag="nSRn-Yo77K50Glcrp6Sn" version="21.3.5" type="device">
  <diagram name="Page-1" id="fK5lDs1kcrJTTDJSl0Si">
    <mxGraphModel dx="1035" dy="567" grid="1" gridSize="10" guides="1" tooltips="1" connect="0" arrows="1" fold="1" page="1" pageScale="1" pageWidth="850" pageHeight="1100" math="0" shadow="0">
      <root>
        <mxCell id="0" />
        <mxCell id="1" parent="0" />
        <mxCell id="yimVJy0XfcsO3f4L6U-0-1" style="edgeStyle=orthogonalEdgeStyle;rounded=0;orthogonalLoop=1;jettySize=auto;html=1;" edge="1" parent="1" source="yimVJy0XfcsO3f4L6U-0-4">
          <mxGeometry relative="1" as="geometry">
            <mxPoint x="212.24" y="270" as="targetPoint" />
          </mxGeometry>
        </mxCell>
        <mxCell id="yimVJy0XfcsO3f4L6U-0-78" style="edgeStyle=orthogonalEdgeStyle;rounded=0;orthogonalLoop=1;jettySize=auto;html=1;" edge="1" parent="1" source="rFdzq7lu_0cl1mvgcB7l-2">
          <mxGeometry relative="1" as="geometry">
            <mxPoint x="750" y="1025" as="targetPoint" />
            <Array as="points">
              <mxPoint x="831" y="60" />
              <mxPoint x="831" y="1025" />
            </Array>
          </mxGeometry>
        </mxCell>
        <mxCell id="rFdzq7lu_0cl1mvgcB7l-2" value="while op!=&quot;=&quot;" style="rhombus;whiteSpace=wrap;html=1;fillColor=#d80073;fontColor=#ffffff;strokeColor=#A50040;" parent="1" vertex="1">
          <mxGeometry x="172.24" y="20" width="80" height="80" as="geometry" />
        </mxCell>
        <mxCell id="rFdzq7lu_0cl1mvgcB7l-12" style="edgeStyle=orthogonalEdgeStyle;rounded=0;orthogonalLoop=1;jettySize=auto;html=1;entryX=0.488;entryY=-0.062;entryDx=0;entryDy=0;entryPerimeter=0;" parent="1" source="rFdzq7lu_0cl1mvgcB7l-11" target="rFdzq7lu_0cl1mvgcB7l-15" edge="1">
          <mxGeometry relative="1" as="geometry">
            <mxPoint x="340" y="471" as="targetPoint" />
            <Array as="points">
              <mxPoint x="379" y="441" />
              <mxPoint x="379" y="489" />
              <mxPoint x="384" y="489" />
            </Array>
          </mxGeometry>
        </mxCell>
        <mxCell id="yimVJy0XfcsO3f4L6U-0-61" value="F" style="edgeLabel;html=1;align=center;verticalAlign=middle;resizable=0;points=[];" vertex="1" connectable="0" parent="rFdzq7lu_0cl1mvgcB7l-12">
          <mxGeometry x="-0.7303" y="-1" relative="1" as="geometry">
            <mxPoint as="offset" />
          </mxGeometry>
        </mxCell>
        <mxCell id="rFdzq7lu_0cl1mvgcB7l-26" value="" style="edgeStyle=orthogonalEdgeStyle;rounded=0;orthogonalLoop=1;jettySize=auto;html=1;" parent="1" source="rFdzq7lu_0cl1mvgcB7l-11" edge="1">
          <mxGeometry relative="1" as="geometry">
            <mxPoint x="520" y="441" as="targetPoint" />
          </mxGeometry>
        </mxCell>
        <mxCell id="yimVJy0XfcsO3f4L6U-0-60" value="V" style="edgeLabel;html=1;align=center;verticalAlign=middle;resizable=0;points=[];" vertex="1" connectable="0" parent="rFdzq7lu_0cl1mvgcB7l-26">
          <mxGeometry x="-0.4997" relative="1" as="geometry">
            <mxPoint as="offset" />
          </mxGeometry>
        </mxCell>
        <mxCell id="rFdzq7lu_0cl1mvgcB7l-11" value="if op==&quot;+&quot;" style="rhombus;whiteSpace=wrap;html=1;fillColor=#d80073;fontColor=#ffffff;strokeColor=#A50040;" parent="1" vertex="1">
          <mxGeometry x="415" y="401" width="80" height="80" as="geometry" />
        </mxCell>
        <mxCell id="rFdzq7lu_0cl1mvgcB7l-20" value="" style="edgeStyle=orthogonalEdgeStyle;rounded=0;orthogonalLoop=1;jettySize=auto;html=1;exitX=0;exitY=0.525;exitDx=0;exitDy=0;exitPerimeter=0;" parent="1" source="rFdzq7lu_0cl1mvgcB7l-15" target="rFdzq7lu_0cl1mvgcB7l-19" edge="1">
          <mxGeometry relative="1" as="geometry" />
        </mxCell>
        <mxCell id="yimVJy0XfcsO3f4L6U-0-63" value="F" style="edgeLabel;html=1;align=center;verticalAlign=middle;resizable=0;points=[];" vertex="1" connectable="0" parent="rFdzq7lu_0cl1mvgcB7l-20">
          <mxGeometry x="-0.7174" y="1" relative="1" as="geometry">
            <mxPoint as="offset" />
          </mxGeometry>
        </mxCell>
        <mxCell id="rFdzq7lu_0cl1mvgcB7l-29" value="" style="edgeStyle=orthogonalEdgeStyle;rounded=0;orthogonalLoop=1;jettySize=auto;html=1;" parent="1" source="rFdzq7lu_0cl1mvgcB7l-15" target="yimVJy0XfcsO3f4L6U-0-31" edge="1">
          <mxGeometry relative="1" as="geometry">
            <mxPoint x="512.3800000000001" y="532.72" as="targetPoint" />
          </mxGeometry>
        </mxCell>
        <mxCell id="yimVJy0XfcsO3f4L6U-0-62" value="V" style="edgeLabel;html=1;align=center;verticalAlign=middle;resizable=0;points=[];" vertex="1" connectable="0" parent="rFdzq7lu_0cl1mvgcB7l-29">
          <mxGeometry x="-0.763" y="-1" relative="1" as="geometry">
            <mxPoint as="offset" />
          </mxGeometry>
        </mxCell>
        <mxCell id="rFdzq7lu_0cl1mvgcB7l-15" value="op=&quot;-&quot;" style="rhombus;whiteSpace=wrap;html=1;fillColor=#d80073;fontColor=#ffffff;strokeColor=#A50040;" parent="1" vertex="1">
          <mxGeometry x="345" y="506" width="80" height="80" as="geometry" />
        </mxCell>
        <mxCell id="rFdzq7lu_0cl1mvgcB7l-22" value="" style="edgeStyle=orthogonalEdgeStyle;rounded=0;orthogonalLoop=1;jettySize=auto;html=1;exitX=0.038;exitY=0.488;exitDx=0;exitDy=0;exitPerimeter=0;" parent="1" target="rFdzq7lu_0cl1mvgcB7l-21" edge="1">
          <mxGeometry relative="1" as="geometry">
            <Array as="points">
              <mxPoint x="240" y="614" />
            </Array>
            <mxPoint x="283.03999999999985" y="614.04" as="sourcePoint" />
          </mxGeometry>
        </mxCell>
        <mxCell id="yimVJy0XfcsO3f4L6U-0-65" value="F" style="edgeLabel;html=1;align=center;verticalAlign=middle;resizable=0;points=[];" vertex="1" connectable="0" parent="rFdzq7lu_0cl1mvgcB7l-22">
          <mxGeometry x="-0.8143" y="1" relative="1" as="geometry">
            <mxPoint as="offset" />
          </mxGeometry>
        </mxCell>
        <mxCell id="rFdzq7lu_0cl1mvgcB7l-19" value="op=&quot;/&quot;" style="rhombus;whiteSpace=wrap;html=1;fillColor=#d80073;fontColor=#ffffff;strokeColor=#A50040;" parent="1" vertex="1">
          <mxGeometry x="280" y="575" width="80" height="80" as="geometry" />
        </mxCell>
        <mxCell id="rFdzq7lu_0cl1mvgcB7l-24" value="" style="edgeStyle=orthogonalEdgeStyle;rounded=0;orthogonalLoop=1;jettySize=auto;html=1;" parent="1" source="rFdzq7lu_0cl1mvgcB7l-21" target="rFdzq7lu_0cl1mvgcB7l-23" edge="1">
          <mxGeometry relative="1" as="geometry">
            <Array as="points">
              <mxPoint x="160" y="711" />
            </Array>
          </mxGeometry>
        </mxCell>
        <mxCell id="yimVJy0XfcsO3f4L6U-0-67" value="F" style="edgeLabel;html=1;align=center;verticalAlign=middle;resizable=0;points=[];" vertex="1" connectable="0" parent="rFdzq7lu_0cl1mvgcB7l-24">
          <mxGeometry x="-0.6248" y="-1" relative="1" as="geometry">
            <mxPoint as="offset" />
          </mxGeometry>
        </mxCell>
        <mxCell id="rFdzq7lu_0cl1mvgcB7l-21" value="op=&quot;x&quot;" style="rhombus;whiteSpace=wrap;html=1;fillColor=#d80073;fontColor=#ffffff;strokeColor=#A50040;" parent="1" vertex="1">
          <mxGeometry x="200" y="699" width="80" height="80" as="geometry" />
        </mxCell>
        <mxCell id="rFdzq7lu_0cl1mvgcB7l-23" value="op!= &quot;=&quot;" style="rhombus;whiteSpace=wrap;html=1;fillColor=#d80073;fontColor=#ffffff;strokeColor=#A50040;" parent="1" vertex="1">
          <mxGeometry x="120" y="759" width="80" height="80" as="geometry" />
        </mxCell>
        <mxCell id="rFdzq7lu_0cl1mvgcB7l-34" value="" style="edgeStyle=orthogonalEdgeStyle;rounded=0;orthogonalLoop=1;jettySize=auto;html=1;" parent="1" edge="1">
          <mxGeometry relative="1" as="geometry">
            <mxPoint x="282.5" y="738.5" as="sourcePoint" />
            <mxPoint x="367.5" y="738.5" as="targetPoint" />
          </mxGeometry>
        </mxCell>
        <mxCell id="yimVJy0XfcsO3f4L6U-0-66" value="V" style="edgeLabel;html=1;align=center;verticalAlign=middle;resizable=0;points=[];" vertex="1" connectable="0" parent="rFdzq7lu_0cl1mvgcB7l-34">
          <mxGeometry x="-0.7664" y="2" relative="1" as="geometry">
            <mxPoint as="offset" />
          </mxGeometry>
        </mxCell>
        <mxCell id="rFdzq7lu_0cl1mvgcB7l-38" value="" style="edgeStyle=orthogonalEdgeStyle;rounded=0;orthogonalLoop=1;jettySize=auto;html=1;exitX=1.035;exitY=0.548;exitDx=0;exitDy=0;exitPerimeter=0;entryX=0.017;entryY=0.567;entryDx=0;entryDy=0;entryPerimeter=0;" parent="1" target="rFdzq7lu_0cl1mvgcB7l-39" edge="1" source="rFdzq7lu_0cl1mvgcB7l-23">
          <mxGeometry relative="1" as="geometry">
            <mxPoint x="200" y="771" as="sourcePoint" />
            <mxPoint x="280" y="766" as="targetPoint" />
            <Array as="points">
              <mxPoint x="291" y="803" />
            </Array>
          </mxGeometry>
        </mxCell>
        <mxCell id="rFdzq7lu_0cl1mvgcB7l-39" value="error" style="ellipse;whiteSpace=wrap;html=1;aspect=fixed;" parent="1" vertex="1">
          <mxGeometry x="290" y="764" width="70" height="70" as="geometry" />
        </mxCell>
        <mxCell id="rFdzq7lu_0cl1mvgcB7l-41" style="edgeStyle=orthogonalEdgeStyle;rounded=0;orthogonalLoop=1;jettySize=auto;html=1;entryX=0.5;entryY=-0.025;entryDx=0;entryDy=0;entryPerimeter=0;" parent="1" source="yimVJy0XfcsO3f4L6U-0-19" target="rFdzq7lu_0cl1mvgcB7l-11" edge="1">
          <mxGeometry relative="1" as="geometry">
            <mxPoint x="450" y="430" as="targetPoint" />
            <mxPoint x="310" y="380" as="sourcePoint" />
            <Array as="points">
              <mxPoint x="455" y="310" />
            </Array>
          </mxGeometry>
        </mxCell>
        <mxCell id="yimVJy0XfcsO3f4L6U-0-70" value="F" style="edgeLabel;html=1;align=center;verticalAlign=middle;resizable=0;points=[];" vertex="1" connectable="0" parent="rFdzq7lu_0cl1mvgcB7l-41">
          <mxGeometry x="-0.8908" relative="1" as="geometry">
            <mxPoint as="offset" />
          </mxGeometry>
        </mxCell>
        <mxCell id="yimVJy0XfcsO3f4L6U-0-3" value="" style="edgeStyle=orthogonalEdgeStyle;rounded=0;orthogonalLoop=1;jettySize=auto;html=1;" edge="1" parent="1" source="rFdzq7lu_0cl1mvgcB7l-2" target="yimVJy0XfcsO3f4L6U-0-2">
          <mxGeometry relative="1" as="geometry">
            <mxPoint x="212.24" y="270" as="targetPoint" />
            <mxPoint x="212" y="100" as="sourcePoint" />
          </mxGeometry>
        </mxCell>
        <mxCell id="yimVJy0XfcsO3f4L6U-0-2" value="def suma" style="rounded=1;whiteSpace=wrap;html=1;" vertex="1" parent="1">
          <mxGeometry x="153.36" y="120" width="117.76" height="20" as="geometry" />
        </mxCell>
        <mxCell id="yimVJy0XfcsO3f4L6U-0-6" value="" style="edgeStyle=orthogonalEdgeStyle;rounded=0;orthogonalLoop=1;jettySize=auto;html=1;" edge="1" parent="1" source="yimVJy0XfcsO3f4L6U-0-2" target="yimVJy0XfcsO3f4L6U-0-5">
          <mxGeometry relative="1" as="geometry">
            <mxPoint x="212.24" y="270" as="targetPoint" />
            <mxPoint x="212" y="120" as="sourcePoint" />
          </mxGeometry>
        </mxCell>
        <mxCell id="yimVJy0XfcsO3f4L6U-0-5" value="def resta" style="rounded=1;whiteSpace=wrap;html=1;" vertex="1" parent="1">
          <mxGeometry x="153.36" y="160" width="117.76" height="20" as="geometry" />
        </mxCell>
        <mxCell id="yimVJy0XfcsO3f4L6U-0-7" value="" style="edgeStyle=orthogonalEdgeStyle;rounded=0;orthogonalLoop=1;jettySize=auto;html=1;" edge="1" parent="1" source="yimVJy0XfcsO3f4L6U-0-5" target="yimVJy0XfcsO3f4L6U-0-4">
          <mxGeometry relative="1" as="geometry">
            <mxPoint x="212.24" y="270" as="targetPoint" />
            <mxPoint x="212" y="160" as="sourcePoint" />
          </mxGeometry>
        </mxCell>
        <mxCell id="yimVJy0XfcsO3f4L6U-0-4" value="def multiplicación" style="rounded=1;whiteSpace=wrap;html=1;" vertex="1" parent="1">
          <mxGeometry x="153.36" y="210" width="117.76" height="20" as="geometry" />
        </mxCell>
        <mxCell id="yimVJy0XfcsO3f4L6U-0-27" style="edgeStyle=orthogonalEdgeStyle;rounded=0;orthogonalLoop=1;jettySize=auto;html=1;" edge="1" parent="1" source="yimVJy0XfcsO3f4L6U-0-8" target="yimVJy0XfcsO3f4L6U-0-22">
          <mxGeometry relative="1" as="geometry">
            <mxPoint x="690" y="519" as="targetPoint" />
            <Array as="points">
              <mxPoint x="735" y="487" />
              <mxPoint x="691" y="487" />
              <mxPoint x="691" y="489" />
              <mxPoint x="560" y="489" />
            </Array>
          </mxGeometry>
        </mxCell>
        <mxCell id="yimVJy0XfcsO3f4L6U-0-8" value="sumo valores" style="rounded=0;whiteSpace=wrap;html=1;" vertex="1" parent="1">
          <mxGeometry x="680" y="427" width="110" height="28" as="geometry" />
        </mxCell>
        <mxCell id="yimVJy0XfcsO3f4L6U-0-34" style="edgeStyle=orthogonalEdgeStyle;rounded=0;orthogonalLoop=1;jettySize=auto;html=1;" edge="1" parent="1" source="yimVJy0XfcsO3f4L6U-0-9" target="yimVJy0XfcsO3f4L6U-0-32">
          <mxGeometry relative="1" as="geometry">
            <mxPoint x="706.5000000000002" y="600" as="sourcePoint" />
          </mxGeometry>
        </mxCell>
        <mxCell id="yimVJy0XfcsO3f4L6U-0-9" value="resto valores" style="rounded=0;whiteSpace=wrap;html=1;" vertex="1" parent="1">
          <mxGeometry x="654" y="558" width="105" height="28" as="geometry" />
        </mxCell>
        <mxCell id="yimVJy0XfcsO3f4L6U-0-15" style="edgeStyle=orthogonalEdgeStyle;rounded=0;orthogonalLoop=1;jettySize=auto;html=1;exitX=1;exitY=0.5;exitDx=0;exitDy=0;exitPerimeter=0;" edge="1" parent="1">
          <mxGeometry relative="1" as="geometry">
            <mxPoint x="360" y="615" as="sourcePoint" />
            <mxPoint x="320" y="739" as="targetPoint" />
            <Array as="points">
              <mxPoint x="390" y="615" />
              <mxPoint x="390" y="675" />
              <mxPoint x="320" y="675" />
              <mxPoint x="320" y="715" />
            </Array>
          </mxGeometry>
        </mxCell>
        <mxCell id="yimVJy0XfcsO3f4L6U-0-64" value="V" style="edgeLabel;html=1;align=center;verticalAlign=middle;resizable=0;points=[];" vertex="1" connectable="0" parent="yimVJy0XfcsO3f4L6U-0-15">
          <mxGeometry x="-0.9106" y="1" relative="1" as="geometry">
            <mxPoint as="offset" />
          </mxGeometry>
        </mxCell>
        <mxCell id="yimVJy0XfcsO3f4L6U-0-54" style="edgeStyle=orthogonalEdgeStyle;rounded=0;orthogonalLoop=1;jettySize=auto;html=1;entryX=0.5;entryY=0;entryDx=0;entryDy=0;entryPerimeter=0;" edge="1" parent="1" source="yimVJy0XfcsO3f4L6U-0-16" target="yimVJy0XfcsO3f4L6U-0-33">
          <mxGeometry relative="1" as="geometry" />
        </mxCell>
        <mxCell id="yimVJy0XfcsO3f4L6U-0-16" value="multiplicar valores" style="rounded=0;whiteSpace=wrap;html=1;" vertex="1" parent="1">
          <mxGeometry x="620" y="789" width="120" height="30" as="geometry" />
        </mxCell>
        <mxCell id="yimVJy0XfcsO3f4L6U-0-21" style="edgeStyle=orthogonalEdgeStyle;rounded=0;orthogonalLoop=1;jettySize=auto;html=1;" edge="1" parent="1" source="yimVJy0XfcsO3f4L6U-0-17">
          <mxGeometry relative="1" as="geometry">
            <mxPoint x="210" y="250" as="targetPoint" />
            <Array as="points">
              <mxPoint x="111" y="430" />
              <mxPoint x="111" y="250" />
            </Array>
          </mxGeometry>
        </mxCell>
        <mxCell id="yimVJy0XfcsO3f4L6U-0-17" value="ingrese la fraccion" style="ellipse;whiteSpace=wrap;html=1;" vertex="1" parent="1">
          <mxGeometry x="172.24" y="390" width="80" height="80" as="geometry" />
        </mxCell>
        <mxCell id="yimVJy0XfcsO3f4L6U-0-20" style="edgeStyle=orthogonalEdgeStyle;rounded=0;orthogonalLoop=1;jettySize=auto;html=1;entryX=0.51;entryY=-0.042;entryDx=0;entryDy=0;entryPerimeter=0;" edge="1" parent="1" source="yimVJy0XfcsO3f4L6U-0-19" target="yimVJy0XfcsO3f4L6U-0-17">
          <mxGeometry relative="1" as="geometry" />
        </mxCell>
        <mxCell id="yimVJy0XfcsO3f4L6U-0-71" value="V" style="edgeLabel;html=1;align=center;verticalAlign=middle;resizable=0;points=[];" vertex="1" connectable="0" parent="yimVJy0XfcsO3f4L6U-0-20">
          <mxGeometry x="-0.6635" relative="1" as="geometry">
            <mxPoint as="offset" />
          </mxGeometry>
        </mxCell>
        <mxCell id="yimVJy0XfcsO3f4L6U-0-19" value="while denominador!=0" style="rhombus;whiteSpace=wrap;html=1;fillColor=#d80073;fontColor=#ffffff;strokeColor=#A50040;" vertex="1" parent="1">
          <mxGeometry x="172" y="270" width="80" height="80" as="geometry" />
        </mxCell>
        <mxCell id="yimVJy0XfcsO3f4L6U-0-23" style="edgeStyle=orthogonalEdgeStyle;rounded=0;orthogonalLoop=1;jettySize=auto;html=1;entryX=-0.022;entryY=0.577;entryDx=0;entryDy=0;entryPerimeter=0;" edge="1" parent="1" source="yimVJy0XfcsO3f4L6U-0-22" target="yimVJy0XfcsO3f4L6U-0-8">
          <mxGeometry relative="1" as="geometry">
            <mxPoint x="670" y="438.9999999999999" as="targetPoint" />
            <Array as="points">
              <mxPoint x="635" y="441" />
              <mxPoint x="635" y="440" />
              <mxPoint x="670" y="440" />
              <mxPoint x="670" y="443" />
            </Array>
          </mxGeometry>
        </mxCell>
        <mxCell id="yimVJy0XfcsO3f4L6U-0-74" style="edgeStyle=orthogonalEdgeStyle;rounded=0;orthogonalLoop=1;jettySize=auto;html=1;exitX=0.498;exitY=0.034;exitDx=0;exitDy=0;exitPerimeter=0;endArrow=none;endFill=0;" edge="1" parent="1" source="yimVJy0XfcsO3f4L6U-0-22">
          <mxGeometry relative="1" as="geometry">
            <mxPoint x="800" y="529" as="targetPoint" />
          </mxGeometry>
        </mxCell>
        <mxCell id="yimVJy0XfcsO3f4L6U-0-22" value="while op != &quot;=&quot;" style="rhombus;whiteSpace=wrap;html=1;fillColor=#d80073;fontColor=#ffffff;strokeColor=#A50040;" vertex="1" parent="1">
          <mxGeometry x="520" y="401" width="80" height="80" as="geometry" />
        </mxCell>
        <mxCell id="yimVJy0XfcsO3f4L6U-0-29" value="ingrese = par terminar y + para seguir" style="rounded=0;whiteSpace=wrap;html=1;" vertex="1" parent="1">
          <mxGeometry x="654" y="464.5" width="110" height="38" as="geometry" />
        </mxCell>
        <mxCell id="yimVJy0XfcsO3f4L6U-0-44" value="" style="edgeStyle=orthogonalEdgeStyle;rounded=0;orthogonalLoop=1;jettySize=auto;html=1;" edge="1" parent="1" source="yimVJy0XfcsO3f4L6U-0-30" target="yimVJy0XfcsO3f4L6U-0-43">
          <mxGeometry relative="1" as="geometry" />
        </mxCell>
        <mxCell id="yimVJy0XfcsO3f4L6U-0-68" value="F" style="edgeLabel;html=1;align=center;verticalAlign=middle;resizable=0;points=[];" vertex="1" connectable="0" parent="yimVJy0XfcsO3f4L6U-0-44">
          <mxGeometry x="-0.7264" y="-1" relative="1" as="geometry">
            <mxPoint as="offset" />
          </mxGeometry>
        </mxCell>
        <mxCell id="yimVJy0XfcsO3f4L6U-0-75" style="edgeStyle=orthogonalEdgeStyle;rounded=0;orthogonalLoop=1;jettySize=auto;html=1;exitX=0.502;exitY=0.002;exitDx=0;exitDy=0;exitPerimeter=0;endArrow=none;endFill=0;" edge="1" parent="1" source="yimVJy0XfcsO3f4L6U-0-30">
          <mxGeometry relative="1" as="geometry">
            <mxPoint x="800" y="699" as="targetPoint" />
            <Array as="points">
              <mxPoint x="410" y="679" />
              <mxPoint x="800" y="679" />
            </Array>
          </mxGeometry>
        </mxCell>
        <mxCell id="yimVJy0XfcsO3f4L6U-0-30" value="while op != &quot;=&quot;" style="rhombus;whiteSpace=wrap;html=1;fillColor=#d80073;fontColor=#ffffff;strokeColor=#A50040;" vertex="1" parent="1">
          <mxGeometry x="370" y="699" width="80" height="80" as="geometry" />
        </mxCell>
        <mxCell id="yimVJy0XfcsO3f4L6U-0-36" style="edgeStyle=orthogonalEdgeStyle;rounded=0;orthogonalLoop=1;jettySize=auto;html=1;exitX=1.009;exitY=0.497;exitDx=0;exitDy=0;exitPerimeter=0;" edge="1" parent="1" source="yimVJy0XfcsO3f4L6U-0-31">
          <mxGeometry relative="1" as="geometry">
            <mxPoint x="590" y="578.5" as="sourcePoint" />
            <mxPoint x="654" y="586" as="targetPoint" />
          </mxGeometry>
        </mxCell>
        <mxCell id="yimVJy0XfcsO3f4L6U-0-73" style="edgeStyle=orthogonalEdgeStyle;rounded=0;orthogonalLoop=1;jettySize=auto;html=1;exitX=0.509;exitY=-0.031;exitDx=0;exitDy=0;exitPerimeter=0;" edge="1" parent="1" source="yimVJy0XfcsO3f4L6U-0-31">
          <mxGeometry relative="1" as="geometry">
            <mxPoint x="212" y="10" as="targetPoint" />
            <Array as="points">
              <mxPoint x="800" y="522" />
              <mxPoint x="800" y="950" />
              <mxPoint x="50" y="950" />
              <mxPoint x="50" y="10" />
            </Array>
          </mxGeometry>
        </mxCell>
        <mxCell id="yimVJy0XfcsO3f4L6U-0-31" value="while op != &quot;=&quot;" style="rhombus;whiteSpace=wrap;html=1;fillColor=#d80073;fontColor=#ffffff;strokeColor=#A50040;" vertex="1" parent="1">
          <mxGeometry x="510" y="524.5" width="80" height="80" as="geometry" />
        </mxCell>
        <mxCell id="yimVJy0XfcsO3f4L6U-0-35" style="edgeStyle=orthogonalEdgeStyle;rounded=0;orthogonalLoop=1;jettySize=auto;html=1;entryX=0.442;entryY=0.969;entryDx=0;entryDy=0;entryPerimeter=0;" edge="1" parent="1" source="yimVJy0XfcsO3f4L6U-0-32" target="yimVJy0XfcsO3f4L6U-0-31">
          <mxGeometry relative="1" as="geometry">
            <mxPoint x="547.8399999999999" y="622.1800000000001" as="targetPoint" />
          </mxGeometry>
        </mxCell>
        <mxCell id="yimVJy0XfcsO3f4L6U-0-32" value="ingrese = par terminar y + para seguir" style="rounded=0;whiteSpace=wrap;html=1;" vertex="1" parent="1">
          <mxGeometry x="640" y="617" width="110" height="38" as="geometry" />
        </mxCell>
        <mxCell id="yimVJy0XfcsO3f4L6U-0-56" style="edgeStyle=orthogonalEdgeStyle;rounded=0;orthogonalLoop=1;jettySize=auto;html=1;entryX=0.521;entryY=1.004;entryDx=0;entryDy=0;entryPerimeter=0;" edge="1" parent="1" source="yimVJy0XfcsO3f4L6U-0-33" target="yimVJy0XfcsO3f4L6U-0-30">
          <mxGeometry relative="1" as="geometry">
            <mxPoint x="420" y="959" as="targetPoint" />
            <Array as="points">
              <mxPoint x="680" y="923" />
              <mxPoint x="681" y="923" />
              <mxPoint x="681" y="939" />
              <mxPoint x="412" y="939" />
            </Array>
          </mxGeometry>
        </mxCell>
        <mxCell id="yimVJy0XfcsO3f4L6U-0-33" value="ingrese &quot;=&quot; par terminar y &quot;x&quot; para seguir" style="rounded=0;whiteSpace=wrap;html=1;" vertex="1" parent="1">
          <mxGeometry x="625" y="849" width="110" height="38" as="geometry" />
        </mxCell>
        <mxCell id="yimVJy0XfcsO3f4L6U-0-52" style="edgeStyle=orthogonalEdgeStyle;rounded=0;orthogonalLoop=1;jettySize=auto;html=1;entryX=0.531;entryY=-0.033;entryDx=0;entryDy=0;entryPerimeter=0;" edge="1" parent="1" source="yimVJy0XfcsO3f4L6U-0-39" target="yimVJy0XfcsO3f4L6U-0-16">
          <mxGeometry relative="1" as="geometry" />
        </mxCell>
        <mxCell id="yimVJy0XfcsO3f4L6U-0-39" value="intercamnio denominador y numerador , y multiplico" style="rounded=0;whiteSpace=wrap;html=1;" vertex="1" parent="1">
          <mxGeometry x="640" y="706.5" width="80" height="65" as="geometry" />
        </mxCell>
        <mxCell id="yimVJy0XfcsO3f4L6U-0-40" value="camnio op por multiplicacion y agrego L=1" style="rounded=0;whiteSpace=wrap;html=1;" vertex="1" parent="1">
          <mxGeometry x="350" y="624" width="120" height="41" as="geometry" />
        </mxCell>
        <mxCell id="yimVJy0XfcsO3f4L6U-0-48" value="" style="edgeStyle=orthogonalEdgeStyle;rounded=0;orthogonalLoop=1;jettySize=auto;html=1;" edge="1" parent="1" source="yimVJy0XfcsO3f4L6U-0-43" target="yimVJy0XfcsO3f4L6U-0-39">
          <mxGeometry relative="1" as="geometry" />
        </mxCell>
        <mxCell id="yimVJy0XfcsO3f4L6U-0-50" value="" style="edgeStyle=orthogonalEdgeStyle;rounded=0;orthogonalLoop=1;jettySize=auto;html=1;" edge="1" parent="1" source="yimVJy0XfcsO3f4L6U-0-43">
          <mxGeometry relative="1" as="geometry">
            <mxPoint x="530" y="799" as="targetPoint" />
          </mxGeometry>
        </mxCell>
        <mxCell id="yimVJy0XfcsO3f4L6U-0-43" value="L=1" style="rhombus;whiteSpace=wrap;html=1;fillColor=#d80073;fontColor=#ffffff;strokeColor=#A50040;" vertex="1" parent="1">
          <mxGeometry x="490" y="699" width="80" height="80" as="geometry" />
        </mxCell>
        <mxCell id="yimVJy0XfcsO3f4L6U-0-55" style="edgeStyle=orthogonalEdgeStyle;rounded=0;orthogonalLoop=1;jettySize=auto;html=1;" edge="1" parent="1" source="yimVJy0XfcsO3f4L6U-0-51" target="yimVJy0XfcsO3f4L6U-0-53">
          <mxGeometry relative="1" as="geometry" />
        </mxCell>
        <mxCell id="yimVJy0XfcsO3f4L6U-0-51" value="multiplicar valores" style="rounded=0;whiteSpace=wrap;html=1;" vertex="1" parent="1">
          <mxGeometry x="470" y="799" width="120" height="30" as="geometry" />
        </mxCell>
        <mxCell id="yimVJy0XfcsO3f4L6U-0-57" style="edgeStyle=orthogonalEdgeStyle;rounded=0;orthogonalLoop=1;jettySize=auto;html=1;endArrow=none;endFill=0;" edge="1" parent="1" source="yimVJy0XfcsO3f4L6U-0-53">
          <mxGeometry relative="1" as="geometry">
            <mxPoint x="530" y="939" as="targetPoint" />
          </mxGeometry>
        </mxCell>
        <mxCell id="yimVJy0XfcsO3f4L6U-0-53" value="ingrese &quot;=&quot; par terminar y &quot;x&quot; para seguir" style="rounded=0;whiteSpace=wrap;html=1;" vertex="1" parent="1">
          <mxGeometry x="475" y="869" width="110" height="38" as="geometry" />
        </mxCell>
        <mxCell id="yimVJy0XfcsO3f4L6U-0-80" style="edgeStyle=orthogonalEdgeStyle;rounded=0;orthogonalLoop=1;jettySize=auto;html=1;" edge="1" parent="1" source="yimVJy0XfcsO3f4L6U-0-79" target="yimVJy0XfcsO3f4L6U-0-81">
          <mxGeometry relative="1" as="geometry">
            <mxPoint x="560" y="1020" as="targetPoint" />
          </mxGeometry>
        </mxCell>
        <mxCell id="yimVJy0XfcsO3f4L6U-0-79" value="def m.c.d" style="rounded=0;whiteSpace=wrap;html=1;" vertex="1" parent="1">
          <mxGeometry x="630" y="1000" width="120" height="40" as="geometry" />
        </mxCell>
        <mxCell id="yimVJy0XfcsO3f4L6U-0-81" value="mostrar resultadosimplificado" style="ellipse;whiteSpace=wrap;html=1;aspect=fixed;" vertex="1" parent="1">
          <mxGeometry x="490" y="980" width="100" height="100" as="geometry" />
        </mxCell>
      </root>
    </mxGraphModel>
  </diagram>
</mxfile>
